<svg xmlns="http://www.w3.org/2000/svg" viewBox="0 0 354 354"><title>Fichier 2</title><g id="Calque_2" data-name="Calque 2"><g id="TempEau"><path d="M348.21,325.41a35.27,35.27,0,0,1-19.91-10.22c-4.85-5-11.76-5.05-16.57,0-13,13.57-36.87,13.57-50.11-.67-4.65-5-11.35-4.06-16.06.8-13.07,13.44-36.77,13.39-49.94-.76-4.64-5-11.45-4-16.2.9a34.45,34.45,0,0,1-19.84,10c-2.72.36-4.68,3.48-4.68,7v14.37c0,4.06,2.61,7.5,5.74,7.14A52.62,52.62,0,0,0,188,342.41a53.14,53.14,0,0,0,66,0,53.14,53.14,0,0,0,66,0,54.3,54.3,0,0,0,27.21,11.52c3.13.36,5.74-3.08,5.74-7.14V332.68C353,329.11,351,325.81,348.21,325.41Zm0-64.27a35.29,35.29,0,0,1-19.91-10.23c-4.85-4.95-11.76-5-16.57,0-13,13.57-36.87,13.57-50.11-.67-4.65-5-11.35-4.06-16.06.81-13.07,13.43-36.77,13.39-49.94-.76-4.64-5-11.45-4-16.2.89a34.46,34.46,0,0,1-19.84,10c-2.72.36-4.68,3.48-4.68,7v14.37c0,4.06,2.61,7.5,5.74,7.14A52.7,52.7,0,0,0,188,278.14a53.15,53.15,0,0,0,66,0,53.15,53.15,0,0,0,66,0,54.3,54.3,0,0,0,27.21,11.52c3.13.35,5.74-3.08,5.74-7.14V268.41c0-3.57-2-6.87-4.75-7.27Zm0-64.28a35.46,35.46,0,0,1-19.91-10.22c-4.85-4.95-11.76-5-16.57,0-13,13.57-36.87,13.57-50.11-.67-4.65-5-11.35-4.06-16.06.81-13.07,13.43-36.77,13.39-49.94-.76-4.64-5-11.45-4-16.2.89a34.52,34.52,0,0,1-19.84,10c-2.72.35-4.68,3.48-4.68,7v14.38c0,4.06,2.61,7.5,5.74,7.14A52.79,52.79,0,0,0,188,213.87a53.15,53.15,0,0,0,66,0,53.15,53.15,0,0,0,66,0,54.2,54.2,0,0,0,27.21,11.51c3.13.36,5.74-3.08,5.74-7.14v-14.1c0-3.57-2-6.88-4.75-7.28Z"/><path d="M287.63,0A66.38,66.38,0,1,0,354,66.38,66.48,66.48,0,0,0,287.63,0Zm0,88.5a22.13,22.13,0,1,1,22.12-22.12A22.1,22.1,0,0,1,287.63,88.5ZM177,77.44a77.44,77.44,0,1,0-154.87,0V192.56C8.5,209.63,0,230.93,0,254.44a99.57,99.57,0,1,0,177-61.88ZM99.56,309.75a55.22,55.22,0,0,1-33.18-99.42V77.44a33.19,33.19,0,1,1,66.37,0V210.33a55.22,55.22,0,0,1-33.19,99.42Zm11.07-86.49V77.44a11.07,11.07,0,0,0-22.13,0V223.26a33.19,33.19,0,1,0,22.13,0Z"/></g></g></svg>