<svg width="36" height="48" viewBox="0 0 36 48" fill="none" xmlns="http://www.w3.org/2000/svg">
<path fill-rule="evenodd" clip-rule="evenodd" d="M6 4V6H4V8H2V12H0V24H2V28H4V30H6V34H8V36H10V40H12V42H14V46H16V48H20V46H22V42H24V40H26V36H28V34H30V30H32V28H34V24H36V12H34V8H32V6H30V4H28V2H24V0H12V2H8V4H6ZM8 4V6H6V8H4V12H2V24H4V28H6V30H8V34H10V36H12V40H14V42H16V46H20V42H22V40H24V36H26V34H28V30H30V28H32V24H34V12H32V8H30V6H28V4H24V2H12V4H8Z" fill="#933F39"/>
<path fill-rule="evenodd" clip-rule="evenodd" d="M10 12V16H8V20H10V24H12V26H16V28H20V26H24V24H26V20H28V16H26V12H24V10H20V8H16V10H12V12H10ZM12 12V16H10V20H12V24H16V26H20V24H24V20H26V16H24V12H20V10H16V12H12Z" fill="#933F39"/>
<path fill-rule="evenodd" clip-rule="evenodd" d="M24 2H12V4H8V6H6V8H4V12H2V24H4V28H6V30H8V34H10V36H12V40H14V42H16V46H20V42H22V40H24V36H26V34H28V30H30V28H32V24H34V12H32V8H30V6H28V4H24V2ZM20 8H16V10H12V12H10V16H8V20H10V24H12V26H16V28H20V26H24V24H26V20H28V16H26V12H24V10H20V8Z" fill="#EE675C"/>
</svg>
